<svg width="188" height="278" viewBox="0 0 188 278" fill="none" xmlns="http://www.w3.org/2000/svg">
<path d="M94 177L53.5 176.5L53 182.5L66.5 181H78L85 182L99.5 182.5L100.5 177H96H94Z" fill="black" stroke="black"/>
<path d="M43 175.5L41.5 170V169L55 168.5L54 185.5H64.5H90.5L95.5 184V169H106.5L107.5 184V203V218L111.5 231V259L105.5 260.5V250L104 246L101 214.5L98 203L97 190.5L90.5 191L67 190.5H54V206.5H50.5L46 248.5V260.5L43 262.5L41.5 259L43 193V187.5L40 185.5V182.5L43 180.5V175.5Z" fill="black" stroke="black"/>
<path d="M32.5 247L41.5 254L48 251.5L49.5 226.5L57.5 215V208L54.5 206L44 193L38 191.5V187.5L36 184V173.5L41.5 171.5H107.5L116.5 173.5L127.5 185.5H130V189.5L140 215.5L141.5 224.5L145.5 236L147 244L151 247.5L149 265L151 270.5L163 273L171.5 277.5L183.5 276.5L187.5 274.5V265L183.5 263.5L170 247.5L169 224.5L167.5 217.5H163L161 213.5V204L158.5 196V191.5L153.5 178V158.5L145.5 152.5L147 151V145L145.5 142V125L144 121.5L140 103.5L133 95.5L129 81.5L127 79L122.5 57.5L121 57L117.5 56L100.5 50V47L94.5 46.5V31L97.5 32.5L99 24V14L97.5 7L95.5 5.5L91.5 1H72L67 5.5L65 16L67 20L68 33.5H71L70 37V45L62 46.5L53.5 50.5L42 52L34.5 64.5L29.5 67.5L25.5 71.5L10 81L5 88.5V107.5L7.5 114.5L12.5 127V137H22L25.5 144.5L19.5 148L1 169.5L3 183L17 196.5L25.5 220L36 218V226.5L32.5 238V247Z" fill="black" stroke="black"/>
</svg>
