<svg width="145" height="265" viewBox="0 0 145 265" fill="none" xmlns="http://www.w3.org/2000/svg">
<g clip-path="url(#clip0_1706_30154)">
<mask id="mask0_1706_30154" style="mask-type:luminance" maskUnits="userSpaceOnUse" x="0" y="0" width="145" height="265">
<path d="M145 0.5H0V264.5H145V0.5Z" fill="white"/>
</mask>
<g mask="url(#mask0_1706_30154)">
<path d="M38 188V180L50 170.5V193.5H94.5V174L103 175L105.5 188V209H93.5V199L48.5 200.5L46.5 209L38 206.5V193.5H35.5V190.5L38 188Z" fill="#111111" stroke="#111111"/>
<path d="M94 189.5L49.5 191L48.5 185H62L62.5 178.5L82.5 180V184H94V189.5Z" fill="#111111" stroke="#111111"/>
<path d="M40 255.5H36.5V243L33.5 240.5L30.5 233.5L25 231.5L19.5 225.5V218.5L15 214.5L13 205.5L6.5 202V197.5L1 192V176L2.5 168L6.5 166.5L21.5 150.5L30.5 134.5V62L35 56.5L49.5 52.5L59 46V38.5L57 31V9L64 1.5H83.5L86.5 9L90.5 11V21.5V33L86.5 37L83.5 44L93 46L98.5 49L108.5 52.5L110.5 56.5L112.5 126L120.5 132L126 154.5L135 165L140 173.5H144.5V180.5L141.5 187L138 195.5L128 207L120.5 224L118 233.5L112.5 231.5L110.5 243L108.5 251V259L103 263.5L98.5 255.5L95.5 251V227.5L93 222V209L105.5 202L108.5 200V194L110.5 190L108.5 182.5L98.5 180.5H55H36.5H33.5V182.5L30.5 184V190L33.5 192L35 200L36.5 202L47.5 205.5H49.5L55 210.5V240.5L42.5 257L40 255.5Z" fill="#111111" stroke="#111111"/>
</g>
</g>
<defs>
<clipPath id="clip0_1706_30154">
<rect width="145" height="264" fill="white" transform="translate(0 0.5)"/>
</clipPath>
</defs>
</svg>
