<svg width="158" height="261" viewBox="0 0 158 261" fill="none" xmlns="http://www.w3.org/2000/svg">
<g clip-path="url(#clip0_1706_30171)">
<mask id="mask0_1706_30171" style="mask-type:luminance" maskUnits="userSpaceOnUse" x="0" y="0" width="158" height="261">
<path d="M158 0.5H0V260.5H158V0.5Z" fill="white"/>
</mask>
<g mask="url(#mask0_1706_30171)">
<path d="M137 97.5L134 101L136 106L141.5 97.5V94L139.5 88.5L134 86H128L131 88.5L137 91V97.5Z" fill="#111111" stroke="#111111"/>
<path d="M1 251.5V255.5L19.5 257.5L24.5 255.5L30.5 251.5H42L47 248V238L44.5 224.5V206.5L49.5 202.5V177H56.5H69L76 168.5L89 161H113.5V180V230L110 232.5V238L107 240L103.5 248H99L89 255.5L91 260H110L123 255.5L134.5 251.5L136.5 240L134.5 224.5V202.5L138.5 188.5L151 177L148 165L156.5 158.5L148 131L145 117L134.5 99L132.5 84L128 72.5L123 61.5L117.5 45L110 40.5H103.5H89V37.5H86L89 24V8.5L84 1.5H65.5L56.5 11V33L61 37.5V45H65.5L61 48.5L44.5 65L42 72.5V99L39 112L36 126.5L39 140.5L27.5 145L24.5 152.5V182L22 196L19.5 217.5L27.5 220V227L19.5 230V238L16 240V245.5H11L1 251.5Z" fill="#111111" stroke="#111111"/>
<path d="M86.5 246.5H83L84.5 212L88 193.5V169L89.5 156L136.5 153.5V171L99.5 172L102 175.5H140.5L144 119L150.5 103.5V93L147.5 86.5L139 81H130H126.5L122.5 75.5H135.5L145.5 79L154 88V103.5L151.5 110L147.5 127.5V156L149 177L147.5 249.5H142L140.5 238.5L142 228.5V199L139 182.5L96 183.5L93.5 196.5L91 209.5V225.5L88 234L86.5 246.5Z" fill="#111111" stroke="#111111"/>
</g>
</g>
<defs>
<clipPath id="clip0_1706_30171">
<rect width="158" height="260" fill="white" transform="translate(0 0.5)"/>
</clipPath>
</defs>
</svg>
