<svg width="192" height="251" viewBox="0 0 192 251" fill="none" xmlns="http://www.w3.org/2000/svg">
<g clip-path="url(#clip0_1706_30179)">
<mask id="mask0_1706_30179" style="mask-type:luminance" maskUnits="userSpaceOnUse" x="0" y="0" width="192" height="251">
<path d="M192 0.5H0V250.5H192V0.5Z" fill="white"/>
</mask>
<g mask="url(#mask0_1706_30179)">
<path d="M85.5 153.5L69 155L67.5 150L85.5 145L88.5 148V159.5H69V157.5H85.5V153.5Z" fill="#111111" stroke="#111111"/>
<path d="M1 238.5V244L17.5 245L29 238.5H39L41.5 221.5L39 214.5V209.5L41.5 195.5L39 186L42.5 168.5L47 151.5L52.5 144H58V151.5V157L61.5 161.5L58 193V214.5L55 229H61.5V223.5L65 200L67.5 175L71 161.5V144H77.5L82 151.5L88 166.5L108.5 161.5L112 164L114 186L118 205V218.5L120 233H124.5V226L122 157V151.5V144H129L140 151.5V161.5L147.5 188L152 193L154 211.5L152 223.5V235L157.5 238.5H170L175 245L182.5 249.5L191.5 247.5V235L176.5 226V214.5L170 211.5V207L172 200L167 166.5L165 132L157.5 117L154 107.5L145.5 105V94.5L142 79.5L134.5 52L122 41.5H112L108.5 39.5L112 34V11L98 1.5H82L71 18V39.5H65L52.5 44.5L49 52L41.5 79.5L36.5 86.5V113.5L39 117L23.5 135.5L20 151.5V207L23.5 211.5L17.5 218.5L6 235L1 238.5Z" fill="#111111" stroke="#111111"/>
</g>
</g>
<defs>
<clipPath id="clip0_1706_30179">
<rect width="192" height="250" fill="white" transform="translate(0 0.5)"/>
</clipPath>
</defs>
</svg>
