<svg width="1406" height="99" viewBox="0 0 1406 99" fill="none" xmlns="http://www.w3.org/2000/svg">
<path d="M421.032 86.1819L421.036 86.1855C429.564 94.0973 441.618 98.019 457.126 98.019C472.636 98.019 484.691 94.0533 493.219 86.0536C501.755 78.0457 505.987 66.4124 505.987 51.239C505.987 36.0656 501.755 24.4323 493.219 16.4243C484.691 8.42471 472.636 4.45898 457.126 4.45898C441.617 4.45898 429.562 8.42467 421.034 16.4242C412.584 24.347 408.396 35.9817 408.396 51.239C408.396 66.4966 412.584 78.1731 421.032 86.1819ZM470.792 70.1479L470.787 70.1529C467.699 73.7423 463.174 75.569 457.126 75.569C451.079 75.569 446.554 73.7423 443.466 70.1529C440.357 66.5404 438.776 61.6411 438.776 55.399V47.079C438.776 40.8369 440.357 35.9376 443.466 32.3251C446.554 28.7357 451.079 26.909 457.126 26.909C463.174 26.909 467.699 28.7357 470.787 32.3251L470.787 32.3251L470.792 32.3301C473.984 35.9426 475.607 40.8401 475.607 47.079V55.399C475.607 61.6379 473.984 66.5354 470.792 70.1479Z" fill="#E9E9E9" stroke="#E9E9E9"/>
<path d="M370.74 95.9595V96.4595H371.24H399.97H400.47V95.9595V6.51953V6.01953H399.97H371.24H370.74V6.51953V95.9595Z" fill="#E9E9E9" stroke="#E9E9E9"/>
<path d="M276.059 95.9595V96.4595H276.559H315.299C331.013 96.4595 342.892 92.7163 350.841 85.1415C358.795 77.5624 362.729 66.2296 362.729 51.2395C362.729 36.2495 358.795 24.9167 350.841 17.3376C342.892 9.76275 331.013 6.01953 315.299 6.01953H276.559H276.059V6.51953V95.9595ZM314.779 74.0095H305.789V28.4695H314.779C320.716 28.4695 325.079 30.0589 327.965 33.1531C330.858 36.2538 332.349 40.9516 332.349 47.3395V55.1395C332.349 61.5274 330.858 66.2252 327.965 69.326C325.079 72.4201 320.716 74.0095 314.779 74.0095Z" fill="#E9E9E9" stroke="#E9E9E9"/>
<path d="M187.317 88.284L187.319 88.2858C195.239 94.7976 206.374 98.0195 220.656 98.0195C234.939 98.0195 246.032 94.7978 253.866 88.284C261.718 81.755 265.616 72.2825 265.616 59.9495V6.51953V6.01953H265.116H236.386H235.886V6.51953V59.5595C235.886 64.4013 234.53 68.2589 231.857 71.1821L231.857 71.1821L231.852 71.188C229.284 74.0874 225.537 75.5695 220.526 75.5695C215.513 75.5695 211.765 74.1288 209.198 71.3155C206.612 68.3944 205.296 64.4932 205.296 59.5595V6.51953V6.01953H204.796H176.066H175.566V6.51953V59.9495C175.566 72.2825 179.464 81.755 187.317 88.284Z" fill="#E9E9E9" stroke="#E9E9E9"/>
<path d="M145.528 96.4595H146.028V95.9595V29.8995H174.778H175.278V29.3995V6.51953V6.01953H174.778H87.418H86.918V6.51953V29.3995V29.8995H87.418H116.298V95.9595V96.4595H116.798H145.528Z" fill="#E9E9E9" stroke="#E9E9E9"/>
<path d="M82.6201 27.7053L82.6199 27.6962C82.532 22.8859 81.5303 19.1433 79.5883 15.9876C77.6499 12.8378 74.7995 10.3137 71.0839 7.8987C63.6147 2.95354 54.1085 0.5 42.6 0.5C30.9182 0.5 21.1981 2.95347 13.4713 7.8953C5.76455 12.7891 1.92999 20.4602 1.92999 30.8098C1.92999 37.8507 3.72976 43.4899 7.3835 47.6698C10.9876 51.7928 15.2148 54.7782 20.0628 56.6157L20.0628 56.6158L20.0706 56.6186C24.8639 58.3445 30.9091 60.021 38.2009 61.6496L38.2009 61.6496L38.2065 61.6508C44.1818 62.9145 48.4266 64.1252 50.9741 65.2758L50.9834 65.28L50.9928 65.2838C52.2836 65.8046 53.2102 66.4501 53.8127 67.1997C54.409 67.9415 54.71 68.8118 54.71 69.8336C54.71 71.0168 54.4272 71.9576 53.8954 72.6902C53.3631 73.4232 52.5496 73.9915 51.4111 74.3729L51.4059 74.3747C49.1372 75.163 46.2079 75.5665 42.6 75.5665C37.6962 75.5665 34.1772 74.8013 31.9597 73.3486C29.8266 71.8627 28.67 68.9148 28.67 64.2781V63.7781H28.17H1H0.5V64.2781C0.5 76.7573 4.39513 85.5802 12.3027 90.581L12.3048 90.5824C20.2154 95.5295 31.1978 97.9754 45.2 97.9754C57.2301 97.9754 66.8796 95.2951 74.0982 89.8822C81.448 84.4364 85.09 76.0934 85.09 64.9556L85.0899 64.9489C85.0021 58.3561 83.1986 53.0779 79.6291 49.1714C76.1099 45.32 71.9688 42.5629 67.2096 40.9084C62.5857 39.1811 56.6684 37.5497 49.4644 36.0118L49.4606 36.011C43.3127 34.7475 38.8901 33.5358 36.1649 32.3819C34.833 31.8179 33.873 31.1183 33.2466 30.3021C32.6252 29.4925 32.3099 28.5401 32.3099 27.4223C32.3099 25.9441 33.1518 24.6388 35.0498 23.5195C37.0226 22.4071 39.8691 21.8249 43.64 21.8249C45.5695 21.8249 47.3922 21.9656 48.9565 22.322C50.5254 22.6794 51.7933 23.2445 52.6561 24.062C53.6142 24.9699 54.0944 25.5031 54.363 26.1082C54.6302 26.7106 54.71 27.4359 54.71 28.7893V29.3313V29.8313H55.21H82.12H82.62V29.3313L82.6201 27.7053Z" fill="#E9E9E9" stroke="#E9E9E9"/>
<path d="M1059.02 6.01758H1058.52V6.51758V95.9576V96.4576H1059.02H1133.64H1134.14V95.9576V73.0776V72.5776H1133.64H1088.25V6.51758V6.01758H1087.75H1059.02Z" fill="#E9E9E9" stroke="#E9E9E9"/>
<path d="M966.9 86.1819L966.904 86.1855C975.431 94.0973 987.485 98.019 1002.99 98.019C1018.5 98.019 1030.56 94.0533 1039.09 86.0536C1047.62 78.0457 1051.85 66.4124 1051.85 51.239C1051.85 36.0656 1047.62 24.4323 1039.09 16.4243C1030.56 8.42471 1018.5 4.45898 1002.99 4.45898C987.484 4.45898 975.429 8.42467 966.902 16.4242C958.451 24.347 954.264 35.9817 954.264 51.239C954.264 66.4966 958.451 78.1731 966.9 86.1819ZM1016.66 70.1479L1016.65 70.1529C1013.57 73.7423 1009.04 75.569 1002.99 75.569C996.946 75.569 992.421 73.7423 989.333 70.1529C986.224 66.5404 984.644 61.6411 984.644 55.399V47.079C984.644 40.8369 986.224 35.9376 989.333 32.3251C992.421 28.7357 996.946 26.909 1002.99 26.909C1009.04 26.909 1013.57 28.7357 1016.65 32.3251L1016.65 32.3251L1016.66 32.3301C1019.85 35.9426 1021.47 40.8401 1021.47 47.079V55.399C1021.47 61.6379 1019.85 66.5354 1016.66 70.1479Z" fill="#E9E9E9" stroke="#E9E9E9"/>
<path d="M949.104 32.519L949.104 32.5095C948.928 23.251 945.078 16.2439 937.561 11.556C930.093 6.81214 920.59 4.45898 909.084 4.45898C897.406 4.45898 887.689 6.81201 879.964 11.5524C872.257 16.2478 868.414 23.6143 868.414 33.559C868.414 40.3227 870.217 45.7411 873.875 49.7557C877.48 53.7131 881.708 56.5768 886.554 58.3389L886.554 58.3389L886.561 58.3416C891.354 59.9972 897.398 61.6054 904.69 63.1679L904.695 63.169C910.671 64.3815 914.917 65.5433 917.466 66.6478L917.475 66.6517L917.484 66.6553C918.777 67.1557 919.703 67.7755 920.304 68.4926C920.897 69.2008 921.194 70.0285 921.194 70.999C921.194 72.1266 920.914 73.0218 920.386 73.7198C919.856 74.4199 919.043 74.966 917.901 75.3329L917.896 75.3346C915.625 76.0916 912.694 76.479 909.084 76.479C904.178 76.479 900.656 75.7444 898.436 74.3493C896.307 72.9265 895.154 70.1083 895.154 65.669V65.169H894.654H867.484H866.984V65.669C866.984 77.6545 870.886 86.1275 878.795 90.9265L878.797 90.9277C886.706 95.6729 897.685 98.019 911.684 98.019C923.711 98.019 933.357 95.4485 940.575 90.2558C947.927 85.0294 951.574 77.0173 951.574 66.319L951.574 66.312C951.486 59.9779 949.68 54.9061 946.106 51.1542C942.586 47.4575 938.445 44.813 933.688 43.2264C929.065 41.5695 923.148 40.0046 915.945 38.5291L915.941 38.5284C909.793 37.3161 905.369 36.1534 902.643 35.0458C901.309 34.5038 900.349 33.8323 899.725 33.0516C899.106 32.2787 898.794 31.3721 898.794 30.309C898.794 28.9108 899.624 27.6629 901.527 26.5865C903.502 25.518 906.351 24.959 910.124 24.959C913.962 24.959 916.721 25.8133 918.498 27.429C920.299 29.0666 921.194 31.0984 921.194 33.559V34.079V34.579H921.694H948.604H949.104V34.079L949.104 32.519Z" fill="#E9E9E9" stroke="#E9E9E9"/>
<path d="M803.094 96.1008L803.2 96.4576H803.573H833.993H834.707L834.462 95.7862L801.832 6.34621L801.713 6.01758H801.363H767.953H767.603L767.483 6.34621L734.853 95.7862L734.608 96.4576H735.323H764.703H765.075L765.182 96.1008L768.845 83.8476H799.43L803.094 96.1008ZM793.155 62.8276H775.123L784.201 32.3611L793.155 62.8276Z" fill="#E9E9E9" stroke="#E9E9E9"/>
<path d="M718.569 58.7842C724.027 56.6659 728.229 53.4223 731.147 49.0449C734.15 44.5404 735.651 39.5034 735.651 33.9476C735.651 28.9269 734.462 24.2938 732.08 20.0576C729.777 15.7194 726.28 12.3164 721.61 9.84811C717.014 7.28619 711.467 6.01758 704.991 6.01758H650.261H649.761V6.51758V95.9576V96.4576H650.261H678.991H679.491V95.9576V63.8276H689.338L705.062 96.1762L705.198 96.4576H705.511H737.751H738.583L738.193 95.723L718.569 58.7842ZM703.208 29.6211C704.668 31.0812 705.401 32.9013 705.401 35.1176C705.401 37.3318 704.669 39.1992 703.203 40.7488C701.74 42.2096 699.963 42.9376 697.841 42.9376H679.491V27.4276H697.841C699.965 27.4276 701.744 28.1571 703.208 29.6211Z" fill="#E9E9E9" stroke="#E9E9E9"/>
<path d="M557.136 86.1819L557.14 86.1855C565.667 94.0973 577.722 98.019 593.23 98.019C608.74 98.019 620.795 94.0533 629.322 86.0536C637.858 78.0457 642.09 66.4124 642.09 51.239C642.09 36.0656 637.858 24.4323 629.322 16.4243C620.795 8.42471 608.74 4.45898 593.23 4.45898C577.72 4.45898 565.665 8.42467 557.138 16.4242C548.687 24.347 544.5 35.9817 544.5 51.239C544.5 66.4966 548.687 78.1731 557.136 86.1819ZM606.895 70.1479L606.891 70.1529C603.802 73.7423 599.277 75.569 593.23 75.569C587.183 75.569 582.658 73.7423 579.569 70.1529C576.461 66.5404 574.88 61.6411 574.88 55.399V47.079C574.88 40.8369 576.461 35.9376 579.569 32.3251C582.658 28.7357 587.183 26.909 593.23 26.909C599.277 26.909 603.802 28.7357 606.891 32.3251L606.891 32.3251L606.895 32.3301C610.088 35.9426 611.71 40.8401 611.71 47.079V55.399C611.71 61.6379 610.088 66.5354 606.895 70.1479Z" fill="#E9E9E9" stroke="#E9E9E9"/>
<path d="M1326.7 6.01953H1326.2V6.51953V95.9595V96.4595H1326.7H1404.96H1405.46V95.9595V74.5095V74.0095H1404.96H1355.93V61.3595H1397.03H1397.53V60.8595V40.3195V39.8195H1397.03H1355.93V28.4695H1404.05H1404.55V27.9695V6.51953V6.01953H1404.05H1326.7Z" fill="#E9E9E9" stroke="#E9E9E9"/>
<path d="M1299.62 58.7862C1305.08 56.6679 1309.28 53.4242 1312.2 49.0469C1315.2 44.5424 1316.7 39.5053 1316.7 33.9495C1316.7 28.9288 1315.51 24.2957 1313.13 20.0596C1310.83 15.7214 1307.33 12.3183 1302.66 9.85006C1298.07 7.28814 1292.52 6.01953 1286.04 6.01953H1231.31H1230.81V6.51953V95.9595V96.4595H1231.31H1260.04H1260.54V95.9595V63.8295H1270.39L1286.11 96.1781L1286.25 96.4595H1286.56H1318.8H1319.64L1319.25 95.725L1299.62 58.7862ZM1284.26 29.6231C1285.72 31.0832 1286.45 32.9032 1286.45 35.1195C1286.45 37.3337 1285.72 39.2011 1284.26 40.7507C1282.79 42.2116 1281.02 42.9395 1278.89 42.9395H1260.54V27.4295H1278.89C1281.02 27.4295 1282.8 28.1591 1284.26 29.6231Z" fill="#E9E9E9" stroke="#E9E9E9"/>
<path d="M1194.38 96.1028L1194.49 96.4595H1194.86H1225.28H1226L1225.75 95.7882L1193.12 6.34817L1193 6.01953H1192.65H1159.24H1158.89L1158.77 6.34817L1126.14 95.7882L1125.9 96.4595H1126.61H1155.99H1156.37L1156.47 96.1028L1160.14 83.8495H1190.72L1194.38 96.1028ZM1184.45 62.8295H1166.41L1175.49 32.363L1184.45 62.8295Z" fill="#E9E9E9" stroke="#E9E9E9"/>
</svg>
