<svg width="1406" height="99" viewBox="0 0 1406 99" fill="none" xmlns="http://www.w3.org/2000/svg">
<path d="M457.126 5C472.553 5 484.47 8.94334 492.876 16.83C501.283 24.7167 505.487 36.2 505.487 51.28C505.487 66.36 501.283 77.8433 492.876 85.73C484.47 93.6167 472.553 97.56 457.126 97.56C441.7 97.56 429.783 93.66 421.376 85.86C413.056 77.9733 408.896 66.4467 408.896 51.28C408.896 36.1133 413.056 24.63 421.376 16.83C429.783 8.94334 441.7 5 457.126 5ZM457.126 26.45C450.973 26.45 446.293 28.3133 443.087 32.04C439.88 35.7667 438.276 40.7933 438.276 47.12V55.44C438.276 61.7667 439.88 66.7933 443.087 70.52C446.293 74.2467 450.973 76.11 457.126 76.11C463.28 76.11 467.96 74.2467 471.167 70.52C474.46 66.7933 476.107 61.7667 476.107 55.44V47.12C476.107 40.7933 474.46 35.7667 471.167 32.04C467.96 28.3133 463.28 26.45 457.126 26.45Z" fill="#111111"/>
<path fill-rule="evenodd" clip-rule="evenodd" d="M420.696 86.5931L420.688 86.5858C412.111 78.4548 407.896 66.6285 407.896 51.28C407.896 35.9322 412.111 24.1461 420.693 16.1005C429.34 7.98811 441.534 4 457.126 4C472.719 4 484.913 7.98811 493.561 16.1007C502.226 24.23 506.487 36.0132 506.487 51.28C506.487 66.5468 502.226 78.33 493.561 86.4593C484.913 94.5719 472.719 98.56 457.126 98.56C441.536 98.56 429.344 94.6167 420.696 86.5931ZM470.408 69.8678L470.417 69.8577C473.509 66.3594 475.107 61.5912 475.107 55.44V47.12C475.107 40.9688 473.509 36.2006 470.417 32.7022L470.408 32.6923C467.438 29.2401 463.068 27.45 457.126 27.45C451.185 27.45 446.815 29.2401 443.844 32.6922C440.834 36.1905 439.276 40.9624 439.276 47.12V55.44C439.276 61.5976 440.834 66.3695 443.844 69.8678C446.815 73.3199 451.185 75.11 457.126 75.11C463.068 75.11 467.438 73.3199 470.408 69.8678ZM492.876 16.83C484.47 8.94333 472.553 5 457.126 5C441.7 5 429.783 8.94333 421.376 16.83C413.057 24.63 408.896 36.1133 408.896 51.28C408.896 66.4467 413.057 77.9733 421.376 85.86C429.783 93.66 441.7 97.56 457.126 97.56C472.553 97.56 484.47 93.6167 492.876 85.73C501.283 77.8433 505.487 66.36 505.487 51.28C505.487 36.2 501.283 24.7167 492.876 16.83ZM443.087 32.04C446.293 28.3133 450.973 26.45 457.126 26.45C463.28 26.45 467.96 28.3133 471.167 32.04C474.46 35.7667 476.107 40.7933 476.107 47.12V55.44C476.107 61.7667 474.46 66.7933 471.167 70.52C467.96 74.2467 463.28 76.11 457.126 76.11C450.973 76.11 446.293 74.2467 443.087 70.52C439.88 66.7933 438.276 61.7667 438.276 55.44V47.12C438.276 40.7933 439.88 35.7667 443.087 32.04Z" fill="#111111"/>
<path d="M371.24 96.0005V6.56055H399.97V96.0005H371.24Z" fill="#111111"/>
<path fill-rule="evenodd" clip-rule="evenodd" d="M371.24 6.56055V96.0005H399.97V6.56055H371.24ZM370.24 97.0005V5.56055H400.97V97.0005H370.24Z" fill="#111111"/>
<path d="M315.299 6.56055C346.585 6.56055 362.229 21.4672 362.229 51.2805C362.229 81.0939 346.585 96.0005 315.299 96.0005H276.559V6.56055H315.299ZM305.289 74.5505H314.779C326.825 74.5505 332.849 68.0939 332.849 55.1805V47.3805C332.849 34.4672 326.825 28.0105 314.779 28.0105H305.289V74.5505Z" fill="#111111"/>
<path fill-rule="evenodd" clip-rule="evenodd" d="M362.229 51.2805C362.229 21.4672 346.585 6.56055 315.299 6.56055H276.559V96.0005H315.299C346.585 96.0005 362.229 81.0939 362.229 51.2805ZM314.779 74.5505H305.289V28.0105H314.779C326.825 28.0105 332.849 34.4672 332.849 47.3805V55.1805C332.849 68.0939 326.825 74.5505 314.779 74.5505ZM306.289 29.0105H314.779C320.629 29.0105 324.839 30.5752 327.6 33.5352C330.373 36.5083 331.849 41.0614 331.849 47.3805V55.1805C331.849 61.4997 330.373 66.0528 327.6 69.0259C324.839 71.9859 320.629 73.5505 314.779 73.5505H306.289V29.0105ZM275.559 97.0005V5.56055H315.299C331.084 5.56055 343.109 9.32033 351.186 17.0166C359.272 24.7215 363.229 36.2071 363.229 51.2805C363.229 66.354 359.272 77.8396 351.186 85.5445C343.109 93.2408 331.084 97.0005 315.299 97.0005H275.559Z" fill="#111111"/>
<path d="M265.116 59.9905C265.116 72.2105 261.26 81.5272 253.546 87.9406C245.833 94.3539 234.87 97.5605 220.656 97.5605C206.443 97.5605 195.436 94.3539 187.636 87.9406C179.923 81.5272 176.066 72.2105 176.066 59.9905V6.56055H204.796V59.6005C204.796 64.6272 206.14 68.6572 208.826 71.6906C211.513 74.6372 215.413 76.1105 220.526 76.1105C225.64 76.1105 229.54 74.5939 232.226 71.5605C235 68.5272 236.386 64.5405 236.386 59.6005V6.56055H265.116V59.9905Z" fill="#111111"/>
<path fill-rule="evenodd" clip-rule="evenodd" d="M253.546 87.9406C261.26 81.5272 265.116 72.2105 265.116 59.9905V6.56055H236.386V59.6005C236.386 64.5406 235 68.5272 232.226 71.5605C229.54 74.5939 225.64 76.1105 220.526 76.1105C215.413 76.1105 211.513 74.6372 208.826 71.6906C206.14 68.6572 204.796 64.6272 204.796 59.6005V6.56055H176.066V59.9905C176.066 72.2105 179.923 81.5272 187.636 87.9406C195.436 94.3539 206.443 97.5605 220.656 97.5605C234.87 97.5605 245.833 94.3539 253.546 87.9406ZM209.57 71.0224C207.085 68.2136 205.796 64.4411 205.796 59.6005V5.56055H175.066V59.9905C175.066 72.4365 179.006 82.0649 186.997 88.7095L187.001 88.713C195.041 95.3233 206.304 98.5605 220.656 98.5605C235.007 98.5605 246.231 95.3237 254.186 88.7095C262.177 82.0649 266.116 72.4365 266.116 59.9905V5.56055H235.386V59.6005C235.386 64.344 234.06 68.0726 231.488 70.8858L231.483 70.8916L231.478 70.8975C229.028 73.6629 225.434 75.1105 220.526 75.1105C215.614 75.1105 212.017 73.7024 209.57 71.0224Z" fill="#111111"/>
<path d="M145.528 29.4405V96.0005H116.798V29.4405H87.418V6.56055H174.778V29.4405H145.528Z" fill="#111111"/>
<path fill-rule="evenodd" clip-rule="evenodd" d="M145.528 96.0005V29.4405H174.778V6.56055H87.418V29.4405H116.798V96.0005H145.528ZM115.798 30.4405H86.418V5.56055H175.778V30.4405H146.528V97.0005H115.798V30.4405Z" fill="#111111"/>
<path d="M42.6 1.04102C54.04 1.04102 63.4433 3.48 70.8099 8.35797C78.1766 13.1456 81.9467 18.2614 82.12 27.7463V29.3723H55.21V28.8303C55.21 26.1203 54.9067 25.5467 53 23.7401C51.0933 21.9334 47.54 21.3659 43.64 21.3659C39.8267 21.3659 36.8799 21.9531 34.7999 23.1274C32.8066 24.3017 31.8099 25.747 31.8099 27.4634C31.8099 29.9023 33.1966 31.709 35.97 32.8833C38.7433 34.0576 43.2067 35.2771 49.36 36.5418C56.5533 38.0775 62.4466 39.7034 67.0399 41.4198C71.7199 43.0458 75.7933 45.7557 79.26 49.5497C82.7267 53.3437 84.5033 58.4927 84.59 64.9966C84.59 76.0172 80.9933 84.1923 73.7999 89.522C66.6933 94.8516 57.16 97.5164 45.2 97.5164C31.2466 97.5164 20.3699 95.0774 12.5699 90.1995C4.85661 85.3215 1 76.6947 1 64.3191H28.17C28.17 69.0164 29.3399 72.1781 31.6799 73.8041C34.0199 75.3397 37.66 76.1075 42.6 76.1075C46.24 76.1075 49.2299 75.7011 51.5699 74.8881C53.9966 74.0751 55.21 72.4039 55.21 69.8746C55.21 67.6163 53.8666 65.9451 51.1799 64.8611C48.5799 63.6868 44.2899 62.4673 38.3099 61.2026C31.0299 59.5767 25.0067 57.9055 20.24 56.1892C15.4733 54.3825 11.3133 51.4467 7.75995 47.3817C4.20661 43.3168 2.42999 37.8065 2.42999 30.8508C2.42999 20.6432 6.19999 13.1456 13.74 8.35797C21.3667 3.48 30.9866 1.04102 42.6 1.04102Z" fill="#111111"/>
<path fill-rule="evenodd" clip-rule="evenodd" d="M82.12 29.7681V29.3736H55.21V28.8316C55.21 26.1216 54.9066 25.0424 53 23.2358C51.0934 21.4291 47.5399 21.3672 43.64 21.3672C39.8267 21.3672 36.88 21.9543 34.7999 23.1287C32.8066 24.303 31.8099 25.7483 31.8099 27.4646C31.8099 29.9036 33.1967 31.7103 35.97 32.8846C38.7433 34.0589 43.2067 35.2784 49.36 36.5431C56.5533 38.0787 62.4467 39.7047 67.0399 41.4211C71.72 43.047 75.7933 45.757 79.26 49.551C82.7267 53.345 84.5033 58.4939 84.59 64.9979C84.59 76.0185 80.9933 84.1936 73.7999 89.5233C66.6934 94.8529 57.16 97.5177 45.2 97.5177C31.2466 97.5177 20.37 95.0787 12.5699 90.2008C5.07507 85.4609 1.2215 77.1816 1.00928 65.3627C1.00311 65.0183 1 64.6709 1 64.3204H28.17C28.17 69.0177 29.34 72.1794 31.6799 73.8054C34.02 75.341 37.66 76.1088 42.6 76.1088C46.24 76.1088 49.23 75.7023 51.5699 74.8893C53.9966 74.0763 55.21 72.4052 55.21 69.8759C55.21 67.6176 53.8667 65.9464 51.1799 64.8624C48.58 63.6881 44.2899 62.4686 38.3099 61.2039C31.03 59.5779 25.0067 57.9068 20.24 56.1905C15.4733 54.3838 11.3133 51.448 7.75995 47.383C4.20667 43.318 2.42999 37.8077 2.42999 30.8521C2.42999 20.6445 6.19995 13.1469 13.74 8.35926C21.3666 3.48129 30.9866 1.0423 42.6 1.0423C54.0399 1.0423 63.4434 3.48129 70.8099 8.35926C78.1766 13.1469 81.9467 20.2832 82.12 29.7681ZM71.3391 7.4748C79.0092 12.4597 82.9404 19.9312 83.1198 29.7483L83.12 29.7582V30.4159H54.8311V28.8316C54.8311 26.4123 54.1727 25.4953 53 24.246C51.3523 22.6846 47.4153 22.4095 43.64 22.4095C39.9067 22.4095 37.1541 22.9876 35.2837 24.041C33.4728 25.1102 32.8099 26.2662 32.8099 27.4646C32.8099 28.4613 33.0874 29.2897 33.6309 29.9977C34.1865 30.7218 35.0651 31.3764 36.3463 31.9189C39.026 33.0536 43.4103 34.2579 49.5535 35.5205L49.5607 35.5219C56.7744 37.062 62.7145 38.6984 67.3671 40.436C72.2007 42.1174 76.4097 44.9201 79.9841 48.8322C83.6639 52.8595 85.5006 58.2832 85.5898 64.9834L85.5901 64.9979C85.59 76.2801 81.8909 84.8075 74.3794 90.3728C67.0508 95.8671 57.2921 98.56 45.2 98.56C31.1545 98.56 20.0728 96.1084 12.0555 91.0945L12.0513 91.0919C3.94574 85.9659 0 76.9298 0 64.3204V63.2781H29.17V64.3204C29.17 68.8765 30.3053 71.59 32.2234 72.9303C34.3228 74.3031 37.7281 75.0665 42.6 75.0665C46.1786 75.0665 49.0519 74.6656 51.2538 73.9005L51.2639 73.897C52.3341 73.5385 53.0496 73.0212 53.5026 72.3973C53.9523 71.7778 54.21 70.9617 54.21 69.8759C54.21 68.982 53.951 68.2389 53.4359 67.5982C52.906 66.9389 52.0614 66.3357 50.819 65.8344L50.8005 65.827L50.7823 65.8188C48.2848 64.6907 44.0824 63.4882 38.1111 62.2254L38.1005 62.2232C30.7976 60.592 24.7318 58.9106 19.9135 57.1756L19.9058 57.1729L19.8983 57.17C14.9733 55.3034 10.6786 52.2695 7.02075 48.085C3.25861 43.7811 1.42999 37.9961 1.42999 30.8521C1.42999 20.3284 5.34479 12.4694 13.2197 7.46912C21.0437 2.46585 30.8574 0 42.6 0C54.1688 0 63.7704 2.46518 71.3391 7.4748Z" fill="#111111"/>
<path fill-rule="evenodd" clip-rule="evenodd" d="M1059.03 6.56055V96.0005H1134.65V97.0005H1058.03V5.56055H1088.76V72.1205H1134.65V82.2104L1133.65 84.9514V73.1205H1087.76V6.56055H1059.03Z" fill="#111111"/>
<path fill-rule="evenodd" clip-rule="evenodd" d="M966.564 86.5931L966.556 86.5858C957.978 78.4548 953.764 66.6285 953.764 51.28C953.764 35.9322 957.978 24.1461 966.56 16.1005C975.207 7.98811 987.401 4 1002.99 4C1018.59 4 1030.78 7.98811 1039.43 16.1007C1048.09 24.23 1052.35 36.0132 1052.35 51.28C1052.35 66.5468 1048.09 78.33 1039.43 86.4593C1030.78 94.5719 1018.59 98.56 1002.99 98.56C987.403 98.56 975.211 94.6167 966.564 86.5931ZM967.244 16.83C958.924 24.63 954.764 36.1133 954.764 51.28C954.764 66.4467 958.924 77.9733 967.244 85.86C975.65 93.66 987.567 97.56 1002.99 97.56C1018.42 97.56 1030.34 93.6167 1038.74 85.73C1047.15 77.8433 1051.35 66.36 1051.35 51.28C1051.35 36.2 1047.15 24.7167 1038.74 16.83C1030.34 8.94333 1018.42 5 1002.99 5C987.567 5 975.65 8.94333 967.244 16.83ZM1016.28 69.8678L1016.28 69.8577C1019.38 66.3594 1020.97 61.5912 1020.97 55.44V47.12C1020.97 40.9688 1019.38 36.2006 1016.28 32.7022L1016.28 32.6923C1013.31 29.2401 1008.94 27.45 1002.99 27.45C997.052 27.45 992.682 29.2401 989.712 32.6922C986.702 36.1905 985.144 40.9624 985.144 47.12V55.44C985.144 61.5976 986.702 66.3695 989.712 69.8678C992.682 73.3199 997.052 75.11 1002.99 75.11C1008.94 75.11 1013.31 73.3199 1016.28 69.8678ZM988.954 32.04C992.16 28.3133 996.84 26.45 1002.99 26.45C1009.15 26.45 1013.83 28.3133 1017.03 32.04C1020.33 35.7667 1021.97 40.7933 1021.97 47.12V55.44C1021.97 61.7667 1020.33 66.7933 1017.03 70.52C1013.83 74.2467 1009.15 76.11 1002.99 76.11C996.84 76.11 992.16 74.2467 988.954 70.52C985.747 66.7933 984.144 61.7667 984.144 55.44V47.12C984.144 40.7933 985.747 35.7667 988.954 32.04Z" fill="#111111"/>
<path fill-rule="evenodd" clip-rule="evenodd" d="M556.8 86.5931L556.792 86.5858C548.214 78.4548 544 66.6285 544 51.28C544 35.9323 548.214 24.1463 556.796 16.1007C565.443 7.98811 577.637 4 593.23 4C608.823 4 621.017 7.98811 629.664 16.1007C638.329 24.23 642.59 36.0132 642.59 51.28C642.59 66.5468 638.329 78.33 629.664 86.4593C621.017 94.5719 608.823 98.56 593.23 98.56C577.64 98.56 565.448 94.6167 556.8 86.5931ZM557.48 16.83C549.16 24.63 545 36.1133 545 51.28C545 66.4467 549.16 77.9733 557.48 85.86C565.887 93.66 577.803 97.56 593.23 97.56C608.657 97.56 620.573 93.6167 628.98 85.73C637.387 77.8433 641.59 66.36 641.59 51.28C641.59 36.2 637.387 24.7167 628.98 16.83C620.573 8.94333 608.657 5 593.23 5C577.803 5 565.887 8.94333 557.48 16.83ZM606.512 69.8678L606.521 69.8577C609.612 66.3594 611.21 61.5912 611.21 55.44V47.12C611.21 40.9688 609.612 36.2006 606.521 32.7022L606.512 32.6923C603.542 29.2401 599.171 27.45 593.23 27.45C587.289 27.45 582.918 29.2401 579.948 32.6922C576.938 36.1905 575.38 40.9624 575.38 47.12V55.44C575.38 61.5976 576.938 66.3695 579.948 69.8678C582.918 73.3199 587.289 75.11 593.23 75.11C599.171 75.11 603.542 73.3199 606.512 69.8678ZM579.19 32.04C582.397 28.3133 587.077 26.45 593.23 26.45C599.383 26.45 604.063 28.3133 607.27 32.04C610.563 35.7667 612.21 40.7933 612.21 47.12V55.44C612.21 61.7667 610.563 66.7933 607.27 70.52C604.063 74.2467 599.383 76.11 593.23 76.11C587.077 76.11 582.397 74.2467 579.19 70.52C575.983 66.7933 574.38 61.7667 574.38 55.44V47.12C574.38 40.7933 575.983 35.7667 579.19 32.04Z" fill="#111111"/>
<path fill-rule="evenodd" clip-rule="evenodd" d="M867.494 66.71C867.487 66.3796 867.484 66.0462 867.484 65.71H894.654C894.654 70.2167 895.824 73.25 898.164 74.81C900.504 76.2833 904.144 77.02 909.084 77.02C912.724 77.02 915.714 76.63 918.054 75.85C920.481 75.07 921.694 73.4667 921.694 71.04C921.694 68.8733 920.351 67.27 917.664 66.23C915.064 65.1033 910.774 63.9333 904.794 62.72C897.514 61.16 891.491 59.5567 886.724 57.91C881.958 56.1767 877.798 53.36 874.244 49.46C870.691 45.56 868.914 40.2733 868.914 33.6C868.914 23.8067 872.684 16.6133 880.224 12.02C887.851 7.34 897.471 5 909.084 5C920.524 5 929.928 7.34 937.294 12.02C944.661 16.6133 948.431 23.46 948.604 32.56V34.12H921.694V33.6C921.694 31 920.741 28.8333 918.834 27.1C916.928 25.3667 914.024 24.5 910.124 24.5C906.311 24.5 903.364 25.0633 901.284 26.19C899.291 27.3167 898.294 28.7033 898.294 30.35C898.294 32.69 899.681 34.4233 902.454 35.55C905.228 36.6767 909.691 37.8467 915.844 39.06C923.038 40.5333 928.931 42.0933 933.524 43.74C938.204 45.3 942.278 47.9 945.744 51.54C949.211 55.18 950.988 60.12 951.074 66.36C951.074 76.9333 947.478 84.7767 940.284 89.89C933.178 95.0033 923.644 97.56 911.684 97.56C897.731 97.56 886.854 95.22 879.054 90.54C871.559 85.9925 867.706 78.0492 867.494 66.71ZM940.867 90.703C933.538 95.9755 923.778 98.56 911.684 98.56C897.639 98.56 886.557 96.2079 878.54 91.3975L878.536 91.395C870.43 86.477 866.484 77.8077 866.484 65.71V64.71H895.654V65.71C895.654 70.0815 896.79 72.6849 898.708 73.9707C900.808 75.2876 904.213 76.02 909.084 76.02C912.663 76.02 915.536 75.6353 917.738 74.9013L917.748 74.8979C918.819 74.554 919.534 74.0577 919.987 73.4591C920.437 72.8647 920.694 72.0818 920.694 71.04C920.694 70.1824 920.435 69.4695 919.92 68.8547C919.39 68.2222 918.546 67.6435 917.303 67.1626L917.285 67.1554L917.267 67.1476C914.769 66.0653 910.567 64.9116 904.596 63.7L904.585 63.6979C897.282 62.1329 891.216 60.5197 886.398 58.8552L886.39 58.8526L886.383 58.8498C881.458 57.0589 877.163 54.1481 873.505 50.1335C869.743 46.0043 867.914 40.454 867.914 33.6C867.914 23.5046 871.828 15.9651 879.701 11.1677C887.526 6.36633 897.34 4 909.084 4C920.655 4 930.258 6.36632 937.828 11.174C945.495 15.9566 949.425 23.124 949.604 32.541L949.604 32.5505V35.12H920.694V33.6C920.694 31.2788 919.858 29.3818 918.162 27.8399C916.514 26.3419 913.9 25.5 910.124 25.5C906.392 25.5 903.639 26.0545 901.769 27.0649C899.957 28.0909 899.294 29.2001 899.294 30.35C899.294 31.3062 899.572 32.101 900.115 32.7803C900.671 33.4749 901.549 34.103 902.831 34.6235C905.51 35.7121 909.895 36.8676 916.038 38.0789L916.045 38.0803C923.259 39.5579 929.199 41.1278 933.851 42.7949C938.685 44.4081 942.894 47.0971 946.469 50.8503C950.148 54.7142 951.985 59.9178 952.074 66.3461L952.074 66.36C952.074 77.1828 948.376 85.3634 940.867 90.703Z" fill="#111111"/>
<path fill-rule="evenodd" clip-rule="evenodd" d="M734.257 96.0005L733.893 97.0005H765.447L769.217 84.3905H799.057L802.827 97.0005H835.421L802.062 5.56055H767.252L735.679 92.1026L736.311 93.2905L767.952 6.56055H801.362L833.992 96.0005H803.572L799.802 83.3905H768.472L764.702 96.0005H734.257ZM774.452 63.3705L783.942 31.5205H784.462L793.822 63.3705H774.452ZM775.793 62.3705H792.486L784.197 34.1661L775.793 62.3705Z" fill="#111111"/>
<path fill-rule="evenodd" clip-rule="evenodd" d="M730.732 48.8105C733.678 44.3905 735.152 39.4505 735.152 33.9905C735.152 29.0505 733.982 24.5005 731.642 20.3405C729.388 16.0939 725.965 12.7572 721.372 10.3305C716.865 7.81721 711.405 6.56055 704.992 6.56055H650.262V96.0005H678.992V63.3705H689.652L705.512 96.0005H738.884L739.415 97.0005H704.886L689.026 64.3705H679.992V97.0005H649.262V5.56055H704.992C711.53 5.56055 717.163 6.84118 721.849 9.45177C726.596 11.9617 730.166 15.4313 732.519 19.8612C734.943 24.1733 736.152 28.8894 736.152 33.9905C736.152 39.6421 734.623 44.7762 731.564 49.3652C728.676 53.6972 724.562 56.9322 719.273 59.0856L736.773 92.0269L736.312 93.2905L717.862 58.5605C718.179 58.4433 718.492 58.3224 718.801 58.1977C723.974 56.1105 727.951 52.9815 730.732 48.8105ZM703.562 29.3105C705.122 30.8705 705.902 32.8205 705.902 35.1605C705.902 37.5005 705.122 39.4939 703.562 41.1405C702.002 42.7005 700.095 43.4805 697.842 43.4805H678.992V26.9705H697.842C700.095 26.9705 702.002 27.7505 703.562 29.3105ZM679.992 27.9705H697.842C699.836 27.9705 701.487 28.6496 702.855 30.0177C704.215 31.3779 704.902 33.0679 704.902 35.1605C704.902 37.2489 704.217 38.9905 702.845 40.443C701.479 41.8046 699.832 42.4805 697.842 42.4805H679.992V27.9705Z" fill="#111111"/>
<path d="M1059.03 6.55859H1087.76V73.1186H1133.65V95.9986H1059.03V6.55859Z" fill="#111111"/>
<path d="M1002.99 5C1018.42 5 1030.34 8.94334 1038.74 16.83C1047.15 24.7167 1051.35 36.2 1051.35 51.28C1051.35 66.36 1047.15 77.8433 1038.74 85.73C1030.34 93.6167 1018.42 97.56 1002.99 97.56C987.567 97.56 975.65 93.66 967.244 85.86C958.924 77.9733 954.764 66.4467 954.764 51.28C954.764 36.1133 958.924 24.63 967.244 16.83C975.65 8.94334 987.567 5 1002.99 5ZM1002.99 26.45C996.84 26.45 992.16 28.3133 988.954 32.04C985.747 35.7667 984.144 40.7933 984.144 47.12V55.44C984.144 61.7667 985.747 66.7933 988.954 70.52C992.16 74.2467 996.84 76.11 1002.99 76.11C1009.15 76.11 1013.83 74.2467 1017.03 70.52C1020.33 66.7933 1021.97 61.7667 1021.97 55.44V47.12C1021.97 40.7933 1020.33 35.7667 1017.03 32.04C1013.83 28.3133 1009.15 26.45 1002.99 26.45Z" fill="#111111"/>
<path d="M909.084 5C920.524 5 929.928 7.34 937.294 12.02C944.661 16.6133 948.431 23.46 948.604 32.56V34.12H921.694V33.6C921.694 31 920.741 28.8333 918.834 27.1C916.928 25.3667 914.024 24.5 910.124 24.5C906.311 24.5 903.364 25.0633 901.284 26.19C899.291 27.3167 898.294 28.7033 898.294 30.35C898.294 32.69 899.681 34.4233 902.454 35.55C905.228 36.6767 909.691 37.8467 915.844 39.06C923.038 40.5333 928.931 42.0933 933.524 43.74C938.204 45.3 942.278 47.9 945.744 51.54C949.211 55.18 950.988 60.12 951.074 66.36C951.074 76.9333 947.478 84.7767 940.284 89.89C933.178 95.0033 923.644 97.56 911.684 97.56C897.731 97.56 886.854 95.22 879.054 90.54C871.341 85.86 867.484 77.5833 867.484 65.71H894.654C894.654 70.2167 895.824 73.25 898.164 74.81C900.504 76.2833 904.144 77.02 909.084 77.02C912.724 77.02 915.714 76.63 918.054 75.85C920.481 75.07 921.694 73.4667 921.694 71.04C921.694 68.8733 920.351 67.27 917.664 66.23C915.064 65.1033 910.774 63.9333 904.794 62.72C897.514 61.16 891.491 59.5567 886.724 57.91C881.958 56.1767 877.798 53.36 874.244 49.46C870.691 45.56 868.914 40.2733 868.914 33.6C868.914 23.8067 872.684 16.6133 880.224 12.02C887.851 7.34 897.471 5 909.084 5Z" fill="#111111"/>
<path d="M803.572 95.9986L799.802 83.3886H768.472L764.702 95.9986H735.322L767.952 6.55859H801.362L833.992 95.9986H803.572ZM774.452 63.3686H793.822L784.462 31.5186H783.942L774.452 63.3686Z" fill="#111111"/>
<path d="M735.152 33.9886C735.152 39.4486 733.678 44.3886 730.732 48.8086C727.785 53.2286 723.495 56.4786 717.862 58.5586L737.752 95.9986H705.512L689.652 63.3686H678.992V95.9986H650.262V6.55859H704.992C711.405 6.55859 716.865 7.81526 721.372 10.3286C725.965 12.7553 729.388 16.0919 731.642 20.3386C733.982 24.4986 735.152 29.0486 735.152 33.9886ZM705.902 35.1586C705.902 32.8186 705.122 30.8686 703.562 29.3086C702.002 27.7486 700.095 26.9686 697.842 26.9686H678.992V43.4786H697.842C700.095 43.4786 702.002 42.6986 703.562 41.1386C705.122 39.4919 705.902 37.4986 705.902 35.1586Z" fill="#111111"/>
<path d="M593.23 5C608.657 5 620.573 8.94334 628.98 16.83C637.387 24.7167 641.59 36.2 641.59 51.28C641.59 66.36 637.387 77.8433 628.98 85.73C620.573 93.6167 608.657 97.56 593.23 97.56C577.803 97.56 565.887 93.66 557.48 85.86C549.16 77.9733 545 66.4467 545 51.28C545 36.1133 549.16 24.63 557.48 16.83C565.887 8.94334 577.803 5 593.23 5ZM593.23 26.45C587.077 26.45 582.397 28.3133 579.19 32.04C575.983 35.7667 574.38 40.7933 574.38 47.12V55.44C574.38 61.7667 575.983 66.7933 579.19 70.52C582.397 74.2467 587.077 76.11 593.23 76.11C599.383 76.11 604.063 74.2467 607.27 70.52C610.563 66.7933 612.21 61.7667 612.21 55.44V47.12C612.21 40.7933 610.563 35.7667 607.27 32.04C604.063 28.3133 599.383 26.45 593.23 26.45Z" fill="#111111"/>
<path d="M1326.7 6.56055H1404.05V28.0105H1355.43V40.3605H1397.03V60.9006H1355.43V74.5505H1404.96V96.0005H1326.7V6.56055Z" fill="#111111"/>
<path fill-rule="evenodd" clip-rule="evenodd" d="M1326.7 6.56055V96.0005H1404.96V74.5505H1355.43V60.9006H1397.03V40.3605H1355.43V28.0105H1404.05V6.56055H1326.7ZM1356.43 29.0105H1405.05V5.56055H1325.7V97.0005H1405.96V73.5505H1356.43V61.9006H1398.03V39.3605H1356.43V29.0105Z" fill="#111111"/>
<path d="M1316.2 33.9905C1316.2 39.4505 1314.73 44.3905 1311.78 48.8105C1308.84 53.2305 1304.55 56.4805 1298.91 58.5605L1318.8 96.0005H1286.56L1270.7 63.3705H1260.04V96.0005H1231.31V6.56055H1286.04C1292.46 6.56055 1297.92 7.81721 1302.42 10.3305C1307.02 12.7572 1310.44 16.0939 1312.69 20.3405C1315.03 24.5005 1316.2 29.0505 1316.2 33.9905ZM1286.95 35.1605C1286.95 32.8205 1286.17 30.8705 1284.61 29.3105C1283.05 27.7505 1281.15 26.9705 1278.89 26.9705H1260.04V43.4805H1278.89C1281.15 43.4805 1283.05 42.7005 1284.61 41.1405C1286.17 39.4939 1286.95 37.5005 1286.95 35.1605Z" fill="#111111"/>
<path fill-rule="evenodd" clip-rule="evenodd" d="M1311.78 48.8105C1314.73 44.3905 1316.2 39.4505 1316.2 33.9905C1316.2 29.0505 1315.03 24.5005 1312.69 20.3405C1310.44 16.0939 1307.02 12.7572 1302.42 10.3305C1297.92 7.81721 1292.46 6.56055 1286.04 6.56055H1231.31V96.0005H1260.04V63.3705H1270.7L1286.56 96.0005H1318.8L1298.91 58.5605C1299.23 58.4433 1299.55 58.3224 1299.85 58.1977C1305.03 56.1105 1309 52.9815 1311.78 48.8105ZM1300.33 59.0856L1320.47 97.0005H1285.94L1270.08 64.3705H1261.04V97.0005H1230.31V5.56055H1286.04C1292.58 5.56055 1298.22 6.84118 1302.9 9.45177C1307.65 11.9617 1311.22 15.4313 1313.57 19.8612C1316 24.1733 1317.2 28.8894 1317.2 33.9905C1317.2 39.6421 1315.68 44.7762 1312.62 49.3652C1309.73 53.6972 1305.61 56.9322 1300.33 59.0856ZM1284.61 29.3105C1286.17 30.8705 1286.95 32.8205 1286.95 35.1605C1286.95 37.5005 1286.17 39.4939 1284.61 41.1405C1283.05 42.7005 1281.15 43.4805 1278.89 43.4805H1260.04V26.9705H1278.89C1281.15 26.9705 1283.05 27.7505 1284.61 29.3105ZM1261.04 27.9705H1278.89C1280.89 27.9705 1282.54 28.6496 1283.91 30.0177C1285.27 31.3779 1285.95 33.0679 1285.95 35.1605C1285.95 37.2491 1285.27 38.9907 1283.9 40.4433C1282.53 41.8047 1280.88 42.4805 1278.89 42.4805H1261.04V27.9705Z" fill="#111111"/>
<path d="M1194.86 96.0005L1191.09 83.3905H1159.76L1155.99 96.0005H1126.61L1159.24 6.56055H1192.65L1225.28 96.0005H1194.86ZM1165.74 63.3705H1185.11L1175.75 31.5205H1175.23L1165.74 63.3705Z" fill="#111111"/>
<path fill-rule="evenodd" clip-rule="evenodd" d="M1125.55 96.0005L1125.18 97.0005H1156.74L1160.51 84.3905H1190.35L1194.12 97.0005H1226.71L1193.35 5.56055H1158.54L1130.64 82.0338V84.9514L1159.24 6.56055H1192.65L1225.28 96.0005H1194.86L1191.09 83.3905H1159.76L1155.99 96.0005H1125.55ZM1165.74 63.3705L1175.23 31.5205H1175.75L1185.11 63.3705H1165.74ZM1167.08 62.3705H1183.78L1175.49 34.1661L1167.08 62.3705Z" fill="#111111"/>
</svg>
