<svg width="1405" height="95" viewBox="0 0 1405 95" fill="none" xmlns="http://www.w3.org/2000/svg">
<path d="M514.193 2.56055H542.923V69.1205H588.813V92.0005H514.193V2.56055Z" fill="#111111"/>
<path d="M458.162 1C473.588 1 485.505 4.94334 493.912 12.83C502.318 20.7167 506.522 32.2 506.522 47.28C506.522 62.36 502.318 73.8433 493.912 81.73C485.505 89.6167 473.588 93.56 458.162 93.56C442.735 93.56 430.818 89.66 422.412 81.86C414.092 73.9733 409.932 62.4467 409.932 47.28C409.932 32.1133 414.092 20.63 422.412 12.83C430.818 4.94334 442.735 1 458.162 1ZM458.162 22.45C452.008 22.45 447.328 24.3133 444.122 28.04C440.915 31.7667 439.312 36.7933 439.312 43.12V51.44C439.312 57.7667 440.915 62.7933 444.122 66.52C447.328 70.2467 452.008 72.11 458.162 72.11C464.315 72.11 468.995 70.2467 472.202 66.52C475.495 62.7933 477.142 57.7667 477.142 51.44V43.12C477.142 36.7933 475.495 31.7667 472.202 28.04C468.995 24.3133 464.315 22.45 458.162 22.45Z" fill="#111111"/>
<path d="M364.252 1C375.692 1 385.096 3.34 392.462 8.02C399.829 12.6133 403.599 19.46 403.772 28.56V30.12H376.862V29.6C376.862 27 375.909 24.8333 374.002 23.1C372.096 21.3667 369.192 20.5 365.292 20.5C361.479 20.5 358.532 21.0633 356.452 22.19C354.459 23.3167 353.462 24.7033 353.462 26.35C353.462 28.69 354.849 30.4233 357.622 31.55C360.396 32.6767 364.859 33.8467 371.012 35.06C378.206 36.5333 384.099 38.0933 388.692 39.74C393.372 41.3 397.446 43.9 400.912 47.54C404.379 51.18 406.156 56.12 406.242 62.36C406.242 72.9333 402.646 80.7767 395.452 85.89C388.346 91.0033 378.812 93.56 366.852 93.56C352.899 93.56 342.022 91.22 334.222 86.54C326.509 81.86 322.652 73.5833 322.652 61.71H349.822C349.822 66.2167 350.992 69.25 353.332 70.81C355.672 72.2833 359.312 73.02 364.252 73.02C367.892 73.02 370.882 72.63 373.222 71.85C375.649 71.07 376.862 69.4667 376.862 67.04C376.862 64.8733 375.519 63.27 372.832 62.23C370.232 61.1033 365.942 59.9333 359.962 58.72C352.682 57.16 346.659 55.5567 341.892 53.91C337.126 52.1767 332.966 49.36 329.412 45.46C325.859 41.56 324.082 36.2733 324.082 29.6C324.082 19.8067 327.852 12.6133 335.392 8.02C343.019 3.34 352.639 1 364.252 1Z" fill="#111111"/>
<path d="M258.74 92.0005L254.97 79.3905H223.64L219.87 92.0005H190.49L223.12 2.56055H256.53L289.16 92.0005H258.74ZM229.62 59.3705H248.99L239.63 27.5205H239.11L229.62 59.3705Z" fill="#111111"/>
<path d="M190.32 29.9905C190.32 35.4505 188.846 40.3905 185.9 44.8105C182.953 49.2305 178.663 52.4805 173.03 54.5605L192.92 92.0005H160.68L144.82 59.3705H134.16V92.0005H105.43V2.56055H160.16C166.573 2.56055 172.033 3.81721 176.54 6.33054C181.133 8.75721 184.556 12.0939 186.81 16.3405C189.15 20.5005 190.32 25.0505 190.32 29.9905ZM161.07 31.1605C161.07 28.8205 160.29 26.8705 158.73 25.3105C157.17 23.7505 155.263 22.9705 153.01 22.9705H134.16V39.4805H153.01C155.263 39.4805 157.17 38.7005 158.73 37.1405C160.29 35.4939 161.07 33.5005 161.07 31.1605Z" fill="#111111"/>
<path d="M48.398 1C63.8246 1 75.7413 4.94334 84.148 12.83C92.5546 20.7167 96.758 32.2 96.758 47.28C96.758 62.36 92.5546 73.8433 84.148 81.73C75.7413 89.6167 63.8246 93.56 48.398 93.56C32.9713 93.56 21.0546 89.66 12.648 81.86C4.32797 73.9733 0.167969 62.4467 0.167969 47.28C0.167969 32.1133 4.32797 20.63 12.648 12.83C21.0546 4.94334 32.9713 1 48.398 1ZM48.398 22.45C42.2446 22.45 37.5646 24.3133 34.358 28.04C31.1513 31.7667 29.548 36.7933 29.548 43.12V51.44C29.548 57.7667 31.1513 62.7933 34.358 66.52C37.5646 70.2467 42.2446 72.11 48.398 72.11C54.5513 72.11 59.2313 70.2467 62.438 66.52C65.7313 62.7933 67.378 57.7667 67.378 51.44V43.12C67.378 36.7933 65.7313 31.7667 62.438 28.04C59.2313 24.3133 54.5513 22.45 48.398 22.45Z" fill="#111111"/>
<path d="M1355.47 1C1370.9 1 1382.81 4.94334 1391.22 12.83C1399.63 20.7167 1403.83 32.2 1403.83 47.28C1403.83 62.36 1399.63 73.8433 1391.22 81.73C1382.81 89.6167 1370.9 93.56 1355.47 93.56C1340.04 93.56 1328.13 89.66 1319.72 81.86C1311.4 73.9733 1307.24 62.4467 1307.24 47.28C1307.24 32.1133 1311.4 20.63 1319.72 12.83C1328.13 4.94334 1340.04 1 1355.47 1ZM1355.47 22.45C1349.32 22.45 1344.64 24.3133 1341.43 28.04C1338.22 31.7667 1336.62 36.7933 1336.62 43.12V51.44C1336.62 57.7667 1338.22 62.7933 1341.43 66.52C1344.64 70.2467 1349.32 72.11 1355.47 72.11C1361.62 72.11 1366.3 70.2467 1369.51 66.52C1372.8 62.7933 1374.45 57.7667 1374.45 51.44V43.12C1374.45 36.7933 1372.8 31.7667 1369.51 28.04C1366.3 24.3133 1361.62 22.45 1355.47 22.45Z" fill="#111111"/>
<path fill-rule="evenodd" clip-rule="evenodd" d="M1319.04 82.5931L1319.03 82.5858C1310.45 74.4548 1306.24 62.6285 1306.24 47.28C1306.24 31.9322 1310.45 20.1461 1319.04 12.1005C1327.68 3.98811 1339.88 0 1355.47 0C1371.06 0 1383.26 3.98811 1391.9 12.1007C1400.57 20.23 1404.83 32.0132 1404.83 47.28C1404.83 62.5468 1400.57 74.33 1391.9 82.4593C1383.26 90.5719 1371.06 94.56 1355.47 94.56C1339.88 94.56 1327.69 90.6167 1319.04 82.5931ZM1368.75 65.8678L1368.76 65.8577C1371.85 62.3594 1373.45 57.5912 1373.45 51.44V43.12C1373.45 36.9688 1371.85 32.2006 1368.76 28.7022L1368.75 28.6923C1365.78 25.2401 1361.41 23.45 1355.47 23.45C1349.53 23.45 1345.16 25.2401 1342.19 28.6922C1339.18 32.1905 1337.62 36.9624 1337.62 43.12V51.44C1337.62 57.5976 1339.18 62.3695 1342.19 65.8678C1345.16 69.3199 1349.53 71.11 1355.47 71.11C1361.41 71.11 1365.78 69.3199 1368.75 65.8678ZM1391.22 12.83C1382.81 4.94333 1370.9 1 1355.47 1C1340.04 1 1328.13 4.94333 1319.72 12.83C1311.4 20.63 1307.24 32.1133 1307.24 47.28C1307.24 62.4467 1311.4 73.9733 1319.72 81.86C1328.13 89.66 1340.04 93.56 1355.47 93.56C1370.9 93.56 1382.81 89.6167 1391.22 81.73C1399.63 73.8433 1403.83 62.36 1403.83 47.28C1403.83 32.2 1399.63 20.7167 1391.22 12.83ZM1341.43 28.04C1344.64 24.3133 1349.32 22.45 1355.47 22.45C1361.62 22.45 1366.3 24.3133 1369.51 28.04C1372.8 31.7667 1374.45 36.7933 1374.45 43.12V51.44C1374.45 57.7667 1372.8 62.7933 1369.51 66.52C1366.3 70.2467 1361.62 72.11 1355.47 72.11C1349.32 72.11 1344.64 70.2467 1341.43 66.52C1338.22 62.7933 1336.62 57.7667 1336.62 51.44V43.12C1336.62 36.7933 1338.22 31.7667 1341.43 28.04Z" fill="#111111"/>
<path d="M1269.58 92.0005V2.56055H1298.31V92.0005H1269.58Z" fill="#111111"/>
<path fill-rule="evenodd" clip-rule="evenodd" d="M1269.58 2.56055V92.0005H1298.31V2.56055H1269.58ZM1268.58 93.0005V1.56055H1299.31V93.0005H1268.58Z" fill="#111111"/>
<path d="M1213.64 2.56055C1244.93 2.56055 1260.57 17.4672 1260.57 47.2805C1260.57 77.0939 1244.93 92.0005 1213.64 92.0005H1174.9V2.56055H1213.64ZM1203.63 70.5505H1213.12C1225.17 70.5505 1231.19 64.0939 1231.19 51.1805V43.3805C1231.19 30.4672 1225.17 24.0105 1213.12 24.0105H1203.63V70.5505Z" fill="#111111"/>
<path fill-rule="evenodd" clip-rule="evenodd" d="M1260.57 47.2805C1260.57 17.4672 1244.93 2.56055 1213.64 2.56055H1174.9V92.0005H1213.64C1244.93 92.0005 1260.57 77.0939 1260.57 47.2805ZM1213.12 70.5505H1203.63V24.0105H1213.12C1225.17 24.0105 1231.19 30.4672 1231.19 43.3805V51.1805C1231.19 64.0939 1225.17 70.5505 1213.12 70.5505ZM1204.63 25.0105H1213.12C1218.97 25.0105 1223.18 26.5752 1225.94 29.5352C1228.72 32.5083 1230.19 37.0614 1230.19 43.3805V51.1805C1230.19 57.4997 1228.72 62.0528 1225.94 65.0259C1223.18 67.9859 1218.97 69.5505 1213.12 69.5505H1204.63V25.0105ZM1173.9 93.0005V1.56055H1213.64C1229.43 1.56055 1241.45 5.32033 1249.53 13.0166C1257.62 20.7215 1261.57 32.2071 1261.57 47.2805C1261.57 62.354 1257.62 73.8396 1249.53 81.5445C1241.45 89.2408 1229.43 93.0005 1213.64 93.0005H1173.9Z" fill="#111111"/>
<path d="M1163.46 55.9905C1163.46 68.2105 1159.6 77.5272 1151.89 83.9406C1144.18 90.3539 1133.21 93.5605 1119 93.5605C1104.79 93.5605 1093.78 90.3539 1085.98 83.9406C1078.27 77.5272 1074.41 68.2105 1074.41 55.9905V2.56055H1103.14V55.6005C1103.14 60.6272 1104.48 64.6572 1107.17 67.6906C1109.86 70.6372 1113.76 72.1105 1118.87 72.1105C1123.98 72.1105 1127.88 70.5939 1130.57 67.5605C1133.34 64.5272 1134.73 60.5405 1134.73 55.6005V2.56055H1163.46V55.9905Z" fill="#111111"/>
<path fill-rule="evenodd" clip-rule="evenodd" d="M1151.89 83.9406C1159.6 77.5272 1163.46 68.2105 1163.46 55.9905V2.56055H1134.73V55.6005C1134.73 60.5406 1133.34 64.5272 1130.57 67.5605C1127.88 70.5939 1123.98 72.1105 1118.87 72.1105C1113.76 72.1105 1109.86 70.6372 1107.17 67.6906C1104.48 64.6572 1103.14 60.6272 1103.14 55.6005V2.56055H1074.41V55.9905C1074.41 68.2105 1078.27 77.5272 1085.98 83.9406C1093.78 90.3539 1104.79 93.5605 1119 93.5605C1133.21 93.5605 1144.18 90.3539 1151.89 83.9406ZM1107.91 67.0224C1105.43 64.2136 1104.14 60.4411 1104.14 55.6005V1.56055H1073.41V55.9905C1073.41 68.4365 1077.35 78.0649 1085.34 84.7095L1085.35 84.713C1093.38 91.3233 1104.65 94.5605 1119 94.5605C1133.35 94.5605 1144.57 91.3237 1152.53 84.7095C1160.52 78.0649 1164.46 68.4365 1164.46 55.9905V1.56055H1133.73V55.6005C1133.73 60.344 1132.4 64.0726 1129.83 66.8858L1129.83 66.8916L1129.82 66.8975C1127.37 69.6629 1123.78 71.1105 1118.87 71.1105C1113.96 71.1105 1110.36 69.7024 1107.91 67.0224Z" fill="#111111"/>
<path d="M1043.87 25.4405V92.0005H1015.14V25.4405H985.762V2.56055H1073.12V25.4405H1043.87Z" fill="#111111"/>
<path fill-rule="evenodd" clip-rule="evenodd" d="M1043.87 92.0005V25.4405H1073.12V2.56055H985.762V25.4405H1015.14V92.0005H1043.87ZM1014.14 26.4405H984.762V1.56055H1074.12V26.4405H1044.87V93.0005H1014.14V26.4405Z" fill="#111111"/>
<path d="M940.944 1C952.384 1 961.787 3.34 969.154 8.02C976.52 12.6133 980.29 19.46 980.464 28.56V30.12H953.554V29.6C953.554 27 952.6 24.8333 950.694 23.1C948.787 21.3667 945.884 20.5 941.984 20.5C938.17 20.5 935.224 21.0633 933.144 22.19C931.15 23.3167 930.154 24.7033 930.154 26.35C930.154 28.69 931.54 30.4233 934.314 31.55C937.087 32.6767 941.55 33.8467 947.704 35.06C954.897 36.5333 960.79 38.0933 965.384 39.74C970.064 41.3 974.137 43.9 977.604 47.54C981.07 51.18 982.847 56.12 982.934 62.36C982.934 72.9333 979.337 80.7767 972.144 85.89C965.037 91.0033 955.504 93.56 943.544 93.56C929.59 93.56 918.714 91.22 910.914 86.54C903.2 81.86 899.344 73.5833 899.344 61.71H926.514C926.514 66.2167 927.684 69.25 930.024 70.81C932.364 72.2833 936.004 73.02 940.944 73.02C944.584 73.02 947.574 72.63 949.914 71.85C952.34 71.07 953.554 69.4667 953.554 67.04C953.554 64.8733 952.21 63.27 949.524 62.23C946.924 61.1033 942.634 59.9333 936.654 58.72C929.374 57.16 923.35 55.5567 918.584 53.91C913.817 52.1767 909.657 49.36 906.104 45.46C902.55 41.56 900.774 36.2733 900.774 29.6C900.774 19.8067 904.544 12.6133 912.084 8.02C919.71 3.34 929.33 1 940.944 1Z" fill="#111111"/>
<path d="M781.865 2.56055H859.215V24.0105H810.595V36.3605H852.195V56.9006H810.595V70.5505H860.125V92.0005H781.865V2.56055Z" fill="#111111"/>
<path fill-rule="evenodd" clip-rule="evenodd" d="M781.865 2.56055V92.0005H860.125V70.5505H810.595V56.9006H852.195V36.3605H810.595V24.0105H859.215V2.56055H781.865ZM811.595 25.0105H860.215V1.56055H780.865V93.0005H861.125V69.5505H811.595V57.9006H853.195V35.3605H811.595V25.0105Z" fill="#111111"/>
<path d="M771.372 29.9905C771.372 35.4505 769.899 40.3905 766.952 44.8105C764.006 49.2305 759.716 52.4805 754.082 54.5605L773.972 92.0005H741.732L725.872 59.3705H715.212V92.0005H686.482V2.56055H741.212C747.626 2.56055 753.086 3.81721 757.592 6.33054C762.186 8.75721 765.609 12.0939 767.862 16.3405C770.202 20.5005 771.372 25.0505 771.372 29.9905ZM742.122 31.1605C742.122 28.8205 741.342 26.8705 739.782 25.3105C738.222 23.7505 736.316 22.9705 734.062 22.9705H715.212V39.4805H734.062C736.316 39.4805 738.222 38.7005 739.782 37.1405C741.342 35.4939 742.122 33.5005 742.122 31.1605Z" fill="#111111"/>
<path fill-rule="evenodd" clip-rule="evenodd" d="M766.952 44.8105C769.899 40.3905 771.372 35.4505 771.372 29.9905C771.372 25.0505 770.202 20.5005 767.862 16.3405C765.609 12.0939 762.186 8.75721 757.592 6.33054C753.086 3.81721 747.626 2.56055 741.212 2.56055H686.482V92.0005H715.212V59.3705H725.872L741.732 92.0005H773.972L754.082 54.5605C754.4 54.4433 754.713 54.3224 755.022 54.1977C760.195 52.1105 764.172 48.9815 766.952 44.8105ZM755.494 55.0856L775.636 93.0005H741.107L725.247 60.3705H716.212V93.0005H685.482V1.56055H741.212C747.751 1.56055 753.384 2.84118 758.07 5.45177C762.817 7.96174 766.387 11.4313 768.74 15.8612C771.163 20.1733 772.372 24.8894 772.372 29.9905C772.372 35.6421 770.844 40.7762 767.784 45.3652C764.896 49.6972 760.783 52.9322 755.494 55.0856ZM739.782 25.3105C741.342 26.8705 742.122 28.8205 742.122 31.1605C742.122 33.5005 741.342 35.4939 739.782 37.1405C738.222 38.7005 736.316 39.4805 734.062 39.4805H715.212V22.9705H734.062C736.316 22.9705 738.222 23.7505 739.782 25.3105ZM716.212 23.9705H734.062C736.057 23.9705 737.707 24.6496 739.075 26.0177C740.436 27.3779 741.122 29.0679 741.122 31.1605C741.122 33.2491 740.437 34.9907 739.065 36.4433C737.699 37.8047 736.052 38.4805 734.062 38.4805H716.212V23.9705Z" fill="#111111"/>
<path d="M650.031 92.0005L646.261 79.3905H614.931L611.161 92.0005H581.781L614.411 2.56055H647.821L680.451 92.0005H650.031ZM620.911 59.3705H640.281L630.921 27.5205H630.401L620.911 59.3705Z" fill="#111111"/>
<path fill-rule="evenodd" clip-rule="evenodd" d="M580.716 92.0005L580.352 93.0005H611.906L615.676 80.3905H645.516L649.286 93.0005H681.88L648.521 1.56055H613.711L585.812 78.0338V80.9514L614.411 2.56055H647.821L680.451 92.0005H650.031L646.261 79.3905H614.931L611.161 92.0005H580.716ZM620.911 59.3705L630.401 27.5205H630.921L640.281 59.3705H620.911ZM622.252 58.3705H638.945L630.656 30.1661L622.252 58.3705Z" fill="#111111"/>
<path fill-rule="evenodd" clip-rule="evenodd" d="M514.193 2.56055V92.0005H589.813V93.0005H513.193V1.56055H543.923V68.1205H589.813V78.2104L588.813 80.9514V69.1205H542.923V2.56055H514.193Z" fill="#111111"/>
<path fill-rule="evenodd" clip-rule="evenodd" d="M421.731 82.5931L421.724 82.5858C413.146 74.4548 408.932 62.6285 408.932 47.28C408.932 31.9322 413.146 20.1461 421.728 12.1005C430.375 3.98811 442.569 0 458.162 0C473.755 0 485.948 3.98811 494.596 12.1007C503.261 20.23 507.522 32.0132 507.522 47.28C507.522 62.5468 503.261 74.33 494.596 82.4593C485.948 90.5719 473.755 94.56 458.162 94.56C442.571 94.56 430.379 90.6167 421.731 82.5931ZM422.412 12.83C414.092 20.63 409.932 32.1133 409.932 47.28C409.932 62.4467 414.092 73.9733 422.412 81.86C430.818 89.66 442.735 93.56 458.162 93.56C473.588 93.56 485.505 89.6167 493.912 81.73C502.318 73.8433 506.522 62.36 506.522 47.28C506.522 32.2 502.318 20.7167 493.912 12.83C485.505 4.94333 473.588 1 458.162 1C442.735 1 430.818 4.94333 422.412 12.83ZM471.444 65.8678L471.452 65.8577C474.544 62.3594 476.142 57.5912 476.142 51.44V43.12C476.142 36.9688 474.544 32.2006 471.452 28.7022L471.444 28.6923C468.473 25.2401 464.103 23.45 458.162 23.45C452.22 23.45 447.85 25.2401 444.88 28.6922C441.87 32.1905 440.312 36.9624 440.312 43.12V51.44C440.312 57.5976 441.87 62.3695 444.88 65.8678C447.85 69.3199 452.22 71.11 458.162 71.11C464.103 71.11 468.473 69.3199 471.444 65.8678ZM444.122 28.04C447.328 24.3133 452.008 22.45 458.162 22.45C464.315 22.45 468.995 24.3133 472.202 28.04C475.495 31.7667 477.142 36.7933 477.142 43.12V51.44C477.142 57.7667 475.495 62.7933 472.202 66.52C468.995 70.2467 464.315 72.11 458.162 72.11C452.008 72.11 447.328 70.2467 444.122 66.52C440.915 62.7933 439.312 57.7667 439.312 51.44V43.12C439.312 36.7933 440.915 31.7667 444.122 28.04Z" fill="#111111"/>
<path fill-rule="evenodd" clip-rule="evenodd" d="M189.425 92.0005L189.061 93.0005H220.615L224.385 80.3905H254.225L257.995 93.0005H290.589L257.229 1.56055H222.42L190.847 88.1026L191.479 89.2905L223.12 2.56055H256.53L289.16 92.0005H258.74L254.97 79.3905H223.64L219.87 92.0005H189.425ZM229.62 59.3705L239.11 27.5205H239.63L248.99 59.3705H229.62ZM230.961 58.3705H247.654L239.365 30.1661L230.961 58.3705Z" fill="#111111"/>
<path fill-rule="evenodd" clip-rule="evenodd" d="M185.9 44.8105C188.846 40.3905 190.32 35.4505 190.32 29.9905C190.32 25.0505 189.15 20.5005 186.81 16.3405C184.556 12.0939 181.133 8.75721 176.54 6.33054C172.033 3.81721 166.573 2.56055 160.16 2.56055H105.43V92.0005H134.16V59.3705H144.82L160.68 92.0005H194.052L194.583 93.0005H160.054L144.194 60.3705H135.16V93.0005H104.43V1.56055H160.16C166.698 1.56055 172.331 2.84118 177.017 5.45177C181.764 7.96174 185.334 11.4313 187.687 15.8612C190.111 20.1733 191.32 24.8894 191.32 29.9905C191.32 35.6421 189.791 40.7762 186.732 45.3652C183.844 49.6972 179.73 52.9322 174.441 55.0856L191.941 88.0269L191.48 89.2905L173.03 54.5605C173.347 54.4433 173.66 54.3224 173.969 54.1977C179.142 52.1105 183.119 48.9815 185.9 44.8105ZM158.73 25.3105C160.29 26.8705 161.07 28.8205 161.07 31.1605C161.07 33.5005 160.29 35.4939 158.73 37.1405C157.17 38.7005 155.263 39.4805 153.01 39.4805H134.16V22.9705H153.01C155.263 22.9705 157.17 23.7505 158.73 25.3105ZM135.16 23.9705H153.01C155.004 23.9705 156.655 24.6496 158.023 26.0177C159.383 27.3779 160.07 29.0679 160.07 31.1605C160.07 33.2489 159.385 34.9905 158.013 36.443C156.647 37.8046 155 38.4805 153.01 38.4805H135.16V23.9705Z" fill="#111111"/>
</svg>
