<svg width="145" height="264" viewBox="0 0 145 264" fill="none" xmlns="http://www.w3.org/2000/svg">
<g clip-path="url(#clip0_1642_30348)">
<path d="M38 187.5V179.5L50 170V193H94.5V173.5L103 174.5L105.5 187.5V208.5H93.5V198.5L48.5 200L46.5 208.5L38 206V193H35.5V190L38 187.5Z" fill="#2F2F2F" stroke="#2F2F2F"/>
<path d="M94 189L49.5 190.5L48.5 184.5H62L62.5 178L82.5 179.5V183.5H94V189Z" fill="#2F2F2F" stroke="#2F2F2F"/>
<path d="M40 255H36.5V242.5L33.5 240L30.5 233L25 231L19.5 225V218L15 214L13 205L6.5 201.5V197L1 191.5V175.5L2.5 167.5L6.5 166L21.5 150L30.5 134V61.5L35 56L49.5 52L59 45.5V38L57 30.5V8.5L64 1H83.5L86.5 8.5L90.5 10.5V21V32.5L86.5 36.5L83.5 43.5L93 45.5L98.5 48.5L108.5 52L110.5 56L112.5 125.5L120.5 131.5L126 154L135 164.5L140 173H144.5V180L141.5 186.5L138 195L128 206.5L120.5 223.5L118 233L112.5 231L110.5 242.5L108.5 250.5V258.5L103 263L98.5 255L95.5 250.5V227L93 221.5V208.5L105.5 201.5L108.5 199.5V193.5L110.5 189.5L108.5 182L98.5 180H55H36.5H33.5V182L30.5 183.5V189.5L33.5 191.5L35 199.5L36.5 201.5L47.5 205H49.5L55 210V240L42.5 256.5L40 255Z" fill="#2F2F2F" stroke="#2F2F2F"/>
</g>
<defs>
<clipPath id="clip0_1642_30348">
<rect width="145" height="264" fill="white"/>
</clipPath>
</defs>
</svg>
