<svg width="187" height="259" viewBox="0 0 187 259" fill="none" xmlns="http://www.w3.org/2000/svg">
<g clip-path="url(#clip0_1642_30356)">
<path d="M153 255H137.5L133 248.5L135.5 237L137.5 234V231.5H128L123.5 210.5L119.5 192L116.5 176.5L112 172L114 183L112 196L114 231.5V257.5H110L106 239L104 207L101 172L61 170.5L63 188L58 196L55 234L51.5 255L47 257.5L49.5 210.5V174L47 168.5L35.5 172H23.5L3.5 164.5L1 149.5V115.5L3.5 75.5L13 60.5L23.5 47H41.5L45 41L41.5 25.5L45 6.5L63 1L77.5 9V30L70 47V56L82.5 75.5L87.5 98L95.5 104.5L114 98L133 115.5L147 154.5L161 156.5L170.5 160.5L173.5 172L167.5 174H145L163.5 218.5L155 225V231.5L163.5 234V239L170.5 245.5L186.5 248.5V255L163.5 257.5L158.5 255H153Z" fill="#2F2F2F" stroke="#2F2F2F"/>
<path d="M106 190H59L55 185.5H106V190Z" fill="#2F2F2F"/>
<path d="M78.5 177.5L59 182L63 174.5H88.5L104 177.5V182L92 177.5H78.5Z" fill="#2F2F2F"/>
<path d="M97 95.5L99.5 107.5H104L102 95.5L97 90H104L111 95.5L113.5 107.5H116.5V100L111 88L97 83.5H78.5V90H85L97 95.5Z" fill="#2F2F2F"/>
<path d="M106 190H59L55 185.5H106V190Z" stroke="#2F2F2F"/>
<path d="M78.5 177.5L59 182L63 174.5H88.5L104 177.5V182L92 177.5H78.5Z" stroke="#2F2F2F"/>
<path d="M97 95.5L99.5 107.5H104L102 95.5L97 90H104L111 95.5L113.5 107.5H116.5V100L111 88L97 83.5H78.5V90H85L97 95.5Z" stroke="#2F2F2F"/>
</g>
<defs>
<clipPath id="clip0_1642_30356">
<rect width="187" height="259" fill="white"/>
</clipPath>
</defs>
</svg>
