<svg width="158" height="260" viewBox="0 0 158 260" fill="none" xmlns="http://www.w3.org/2000/svg">
<g clip-path="url(#clip0_1642_30352)">
<path d="M137 97L134 100.5L136 105.5L141.5 97V93.5L139.5 88L134 85.5H128L131 88L137 90.5V97Z" fill="#2F2F2F" stroke="#2F2F2F"/>
<path d="M1 251V255L19.5 257L24.5 255L30.5 251H42L47 247.5V237.5L44.5 224V206L49.5 202V176.5H56.5H69L76 168L89 160.5H113.5V179.5V229.5L110 232V237.5L107 239.5L103.5 247.5H99L89 255L91 259.5H110L123 255L134.5 251L136.5 239.5L134.5 224V202L138.5 188L151 176.5L148 164.5L156.5 158L148 130.5L145 116.5L134.5 98.5L132.5 83.5L128 72L123 61L117.5 44.5L110 40H103.5H89V37H86L89 23.5V8L84 1H65.5L56.5 10.5V32.5L61 37V44.5H65.5L61 48L44.5 64.5L42 72V98.5L39 111.5L36 126L39 140L27.5 144.5L24.5 152V181.5L22 195.5L19.5 217L27.5 219.5V226.5L19.5 229.5V237.5L16 239.5V245H11L1 251Z" fill="#2F2F2F" stroke="#2F2F2F"/>
<path d="M86.5 246H83L84.5 211.5L88 193V168.5L89.5 155.5L136.5 153V170.5L99.5 171.5L102 175H140.5L144 118.5L150.5 103V92.5L147.5 86L139 80.5H130H126.5L122.5 75H135.5L145.5 78.5L154 87.5V103L151.5 109.5L147.5 127V155.5L149 176.5L147.5 249H142L140.5 238L142 228V198.5L139 182L96 183L93.5 196L91 209V225L88 233.5L86.5 246Z" fill="#2F2F2F" stroke="#2F2F2F"/>
</g>
<defs>
<clipPath id="clip0_1642_30352">
<rect width="158" height="260" fill="white"/>
</clipPath>
</defs>
</svg>
