<svg width="142" height="282" viewBox="0 0 142 282" fill="none" xmlns="http://www.w3.org/2000/svg">
<g clip-path="url(#clip0_1706_30162)">
<mask id="mask0_1706_30162" style="mask-type:luminance" maskUnits="userSpaceOnUse" x="0" y="0" width="142" height="282">
<path d="M142 0.5H0V281.5H142V0.5Z" fill="white"/>
</mask>
<g mask="url(#mask0_1706_30162)">
<path d="M54.5 199.5L57 171H92L96.5 165H52.5L42 188V218.5L40.5 239.5L42 259.5H46V252.5L48.5 228.5L54.5 199.5Z" fill="#111111" stroke="#111111"/>
<path d="M54.5 181H102.5L96.5 178L79 176.5L54.5 178V181Z" fill="#111111" stroke="#111111"/>
<path d="M47.5 190.5L101 189.5L97 182.5L48.5 185.5L47.5 190.5Z" fill="#111111" stroke="#111111"/>
<path d="M22 277L32.5 272.5L36.5 252.5L32.5 243.5L36.5 236.5V213L44.5 190.5L56 173L92 174.414L98 196.5L92 210L100.5 222L103 243.5L106 257.5H111.5V255.5H119V247L115.5 231V223.5L121.5 222L125.5 219V208L129 196.5L136 190.5L141 176V164.5L132 153L129 147.5L114 131.5L109 125L106 119.5L109 114.5L111.5 112L114 105.5L111.5 88V65.5L109 57L98 53H92L84.5 47.5L86.5 30L89 16.5L81.5 1.5L60.5 4.5L57 20L60.5 34V47.5H57L42 53L36.5 62V88L40 98.5L42 101L40 117L32.5 131.5L28 153L18 161.5V180.5H15L10.5 190.5L3 208L1 236.5L5 247L10.5 252.5L13 257.5L1 277V281H18L22 277Z" fill="#111111" stroke="#111111"/>
</g>
</g>
<defs>
<clipPath id="clip0_1706_30162">
<rect width="142" height="281" fill="white" transform="translate(0 0.5)"/>
</clipPath>
</defs>
</svg>
