<svg width="142" height="281" viewBox="0 0 142 281" fill="none" xmlns="http://www.w3.org/2000/svg">
<path d="M54.5 199L57 170.5H92L96.5 164.5H52.5L42 187.5V218L40.5 239L42 259H46V252L48.5 228L54.5 199Z" fill="black" stroke="black"/>
<path d="M54.5 180.5H102.5L96.5 177.5L79 176L54.5 177.5V180.5Z" fill="black" stroke="black"/>
<path d="M47.5 190L101 189L97 182L48.5 185L47.5 190Z" fill="black" stroke="black"/>
<path d="M22 276.5L32.5 272L36.5 252L32.5 243L36.5 236V212.5L44.5 190L56 172.5L92 173.914L98 196L92 209.5L100.5 221.5L103 243L106 257H111.5V255H119V246.5L115.5 230.5V223L121.5 221.5L125.5 218.5V207.5L129 196L136 190L141 175.5V164L132 152.5L129 147L114 131L109 124.5L106 119L109 114L111.5 111.5L114 105L111.5 87.5V65L109 56.5L98 52.5H92L84.5 47L86.5 29.5L89 16L81.5 1L60.5 4L57 19.5L60.5 33.5V47H57L42 52.5L36.5 61.5V87.5L40 98L42 100.5L40 116.5L32.5 131L28 152.5L18 161V180H15L10.5 190L3 207.5L1 236L5 246.5L10.5 252L13 257L1 276.5V280.5H18L22 276.5Z" fill="black" stroke="black"/>
</svg>
