<svg width="187" height="260" viewBox="0 0 187 260" fill="none" xmlns="http://www.w3.org/2000/svg">
<g clip-path="url(#clip0_1706_30142)">
<mask id="mask0_1706_30142" style="mask-type:luminance" maskUnits="userSpaceOnUse" x="0" y="0" width="187" height="260">
<path d="M187 0.5H0V259.5H187V0.5Z" fill="white"/>
</mask>
<g mask="url(#mask0_1706_30142)">
<path d="M153 255.5H137.5L133 249L135.5 237.5L137.5 234.5V232H128L123.5 211L119.5 192.5L116.5 177L112 172.5L114 183.5L112 196.5L114 232V258H110L106 239.5L104 207.5L101 172.5L61 171L63 188.5L58 196.5L55 234.5L51.5 255.5L47 258L49.5 211V174.5L47 169L35.5 172.5H23.5L3.5 165L1 150V116L3.5 76L13 61L23.5 47.5H41.5L45 41.5L41.5 26L45 7L63 1.5L77.5 9.5V30.5L70 47.5V56.5L82.5 76L87.5 98.5L95.5 105L114 98.5L133 116L147 155L161 157L170.5 161L173.5 172.5L167.5 174.5H145L163.5 219L155 225.5V232L163.5 234.5V239.5L170.5 246L186.5 249V255.5L163.5 258L158.5 255.5H153Z" fill="#111111" stroke="#111111"/>
<path d="M106 190.5H59L55 186H106V190.5Z" fill="#111111"/>
<path d="M78.5 178L59 182.5L63 175H88.5L104 178V182.5L92 178H78.5Z" fill="#111111"/>
<path d="M97 96L99.5 108H104L102 96L97 90.5H104L111 96L113.5 108H116.5V100.5L111 88.5L97 84H78.5V90.5H85L97 96Z" fill="#111111"/>
<path d="M106 190.5H59L55 186H106V190.5Z" stroke="#111111"/>
<path d="M78.5 178L59 182.5L63 175H88.5L104 178V182.5L92 178H78.5Z" stroke="#111111"/>
<path d="M97 96L99.5 108H104L102 96L97 90.5H104L111 96L113.5 108H116.5V100.5L111 88.5L97 84H78.5V90.5H85L97 96Z" stroke="#111111"/>
</g>
</g>
<defs>
<clipPath id="clip0_1706_30142">
<rect width="187" height="259" fill="white" transform="translate(0 0.5)"/>
</clipPath>
</defs>
</svg>
