<svg width="192" height="250" viewBox="0 0 192 250" fill="none" xmlns="http://www.w3.org/2000/svg">
<g clip-path="url(#clip0_1642_30364)">
<path d="M85.5 153L69 154.5L67.5 149.5L85.5 144.5L88.5 147.5V159H69V157H85.5V153Z" fill="#2F2F2F" stroke="#2F2F2F"/>
<path d="M1 238V243.5L17.5 244.5L29 238H39L41.5 221L39 214V209L41.5 195L39 185.5L42.5 168L47 151L52.5 143.5H58V151V156.5L61.5 161L58 192.5V214L55 228.5H61.5V223L65 199.5L67.5 174.5L71 161V143.5H77.5L82 151L88 166L108.5 161L112 163.5L114 185.5L118 204.5V218L120 232.5H124.5V225.5L122 156.5V151V143.5H129L140 151V161L147.5 187.5L152 192.5L154 211L152 223V234.5L157.5 238H170L175 244.5L182.5 249L191.5 247V234.5L176.5 225.5V214L170 211V206.5L172 199.5L167 166L165 131.5L157.5 116.5L154 107L145.5 104.5V94L142 79L134.5 51.5L122 41H112L108.5 39L112 33.5V10.5L98 1H82L71 17.5V39H65L52.5 44L49 51.5L41.5 79L36.5 86V113L39 116.5L23.5 135L20 151V206.5L23.5 211L17.5 218L6 234.5L1 238Z" fill="#2F2F2F" stroke="#2F2F2F"/>
</g>
<defs>
<clipPath id="clip0_1642_30364">
<rect width="192" height="250" fill="white"/>
</clipPath>
</defs>
</svg>
