<svg width="126" height="284" viewBox="0 0 126 284" fill="none" xmlns="http://www.w3.org/2000/svg">
<path d="M49.5 248.5L52.5 250.5L62 243V231.5L57.5 220.5V207.5L54.5 202.5L43.5 187L45.5 183H72.5L76.5 187L79.5 196L81.5 207.5L86.5 216V234V243V253.5H91V240.5V216L88.5 207.5H91L96 216L98 225V240.5L100 269.5L106.5 275L110 280.5L122 282.5L125.5 276.5V264.5L122 259.5L116.5 243L119 234L116.5 225V192L113 187V157.5L108 154V147L104 139.5L108 124V99L104 94V74.5L100 66.5V58L84 48.5L73.5 44L72.5 38L76.5 13.5L72.5 1H54.5L47.5 6.5L45.5 28L49.5 35L47.5 45.5L27 54.5L22.5 58L20 66.5L16.5 79L10 87.5L7 101.5L4 121L1 134.5V154L7 160V168.5L14.5 183L22.5 192V211.5L37 220.5H45.5V228V234L49.5 248.5Z" fill="black" stroke="black"/>
</svg>
