<svg width="194" height="278" viewBox="0 0 194 278" fill="none" xmlns="http://www.w3.org/2000/svg">
<path d="M45 111L50 123.5L45 126.5L43.5 121L39.5 106.5V98L43.5 92L50 89.5V95.5L43.5 98V104.5L45 111Z" fill="black"/>
<path d="M43.5 181.5V167H41.5L102 162.5L106 171V184.5V195.5L108.5 208V222.5L111.5 235.5V259.5H108.5H106L104.5 249.5L102 237.5V222.5L99.5 205V195.5L96.5 185.5L95.5 173L54 174.5V205L46.5 220V259.5L45 262.5L41.5 264.5V254.5L43.5 197.5V189.5L39.5 188V184.5L43.5 181.5Z" fill="black"/>
<path d="M45 111L50 123.5L45 126.5L43.5 121L39.5 106.5V98L43.5 92L50 89.5V95.5L43.5 98V104.5L45 111Z" stroke="black"/>
<path d="M43.5 181.5V167H41.5L102 162.5L106 171V184.5V195.5L108.5 208V222.5L111.5 235.5V259.5H108.5H106L104.5 249.5L102 237.5V222.5L99.5 205V195.5L96.5 185.5L95.5 173L54 174.5V205L46.5 220V259.5L45 262.5L41.5 264.5V254.5L43.5 197.5V189.5L39.5 188V184.5L43.5 181.5Z" stroke="black"/>
<path d="M50 183H97.5L100 178L73.5 179.5H50V183Z" fill="black" stroke="black"/>
<path d="M21 148L42 131L107.5 121.5L119 136.5H124V131H144V150.5L152 158.5V177.5L157 191L162.5 209V216L168.5 220.5V243L173.5 253L193.5 272V277.5H183L168.5 272L149.5 269V250.5L144 243V234L141.5 220.5L136 206L128.5 184L111.5 171.5H42L34.5 177.5L37.5 191L50.5 199L57.5 209L50.5 227L45 253L42 260.5V253L33 250.5V239L37.5 220.5H33H23.5L21 206L12 191L1 179V171.5L7 164L21 148Z" fill="black" stroke="black"/>
<path d="M31.5 130L44 134.5L29.5 146.5L22 137H12V126.5L7 117.5L6 110L7 88L12 79L26 63L44 53.5L61.5 49.5L71.5 45.5V37.5L66 33V21.5L64.5 9L71.5 1L94.5 3.5L97.5 16V30L94.5 39.5V45.5L101.5 49.5L120.5 57.5L125 71.5L127.5 84.5L139 103.5L143.5 120.5V134.5L146.5 152.5L143.5 161L127.5 148.5L125 134.5L120.5 117.5L112 106L107 117.5L120.5 134.5V139H58.5L40 131L48 117.5V106V92.5L44 88L38.5 92.5L26 101V108.5L28 123L31.5 130Z" fill="black" stroke="black"/>
<path d="M78.5 192.5H98.5L102 182.5L88.5 188H68L51 184.5V190L78.5 192.5Z" fill="black" stroke="black"/>
</svg>
